# xmcd
#
# Track frame offsets: 
#        150
#        11411
#        21394
#        31181
#        41983
#        52181
#        64593
#        76029
#        87262
#        98497
#        109886
#        121908
#        134775
#        146123
#        159411
#        171686
#        186180
#        197656
#        211637
#        228616
#        245284
#        257639
#
# Disc length: 3655 seconds
#
# Revision: 0
# Processed by: cddbd v1.5.2PL0 Copyright (c) Steve Scherf et al.
# Submitted via: ExactAudioCopy v1.1
#
DISCID=340e4516
DTITLE=Various Artists  - All-Time Country Favourites - Love Songs Dis
DTITLE=c 3
DYEAR=2010
DGENRE=Country
TTITLE0=Tammy Wynette - The ways to love a man
TTITLE1=Porter Waggoner and Dolly Parton - Making plans
TTITLE2=Marty Robbins - Just married
TTITLE3=Carl Smith - ( When you feel like you're in love ) don't just 
TTITLE3=stand there
TTITLE4=Johnny Cash - The ways of a woman in love
TTITLE5=Eddy Arnold - Just a little lovin' ( will go a long, long way 
TTITLE5=)
TTITLE6=Patsy Cline - The heart you break may be your own
TTITLE7=Jerry Wallace - How the time flies
TTITLE8=Ray Price - I'll be there ( if you ever want me )
TTITLE9=Jim Reeves - According to my heart
TTITLE10=Hank Williams - Take these chains from my heart
TTITLE11=Tex Ritter - I'm wastin' my tears on you
TTITLE12=Janie Fricke - Down to my last broken heart
TTITLE13=Larry Gatlin and the Gatlin Brothers Band - Houston ( means I
TTITLE13='m one day closer to you )
TTITLE14=Loretta Lynn and Conway Twitty - As soon as I hang up the pho
TTITLE14=ne
TTITLE15=Glen Campbell - And I love you so
TTITLE16=Brenda Lee - Break it to me gently
TTITLE17=Don Williams - Crying in the rain
TTITLE18=Vince Gill - Don't let our love start slippin' away
TTITLE19=Tanya Tucker, Paul Davis and Paul Overstreet - I won't take l
TTITLE19=ess than your love
TTITLE20=Ronnie Milsap - My heart
TTITLE21=Kenny Rogers - You decorated my life
EXTD=
EXTT0=
EXTT1=
EXTT2=
EXTT3=
EXTT4=
EXTT5=
EXTT6=
EXTT7=
EXTT8=
EXTT9=
EXTT10=
EXTT11=
EXTT12=
EXTT13=
EXTT14=
EXTT15=
EXTT16=
EXTT17=
EXTT18=
EXTT19=
EXTT20=
EXTT21=
PLAYORDER=
